<svg version="1.1" id="Layer_1" xmlns="http://www.w3.org/2000/svg" xmlns:xlink="http://www.w3.org/1999/xlink" x="0px" y="0px"
	 width="100%" viewBox="0 0 592 592" enable-background="new 0 0 592 592" xml:space="preserve">
<path fill="#000000" opacity="1.000000" stroke="none" 
	d="
M593.000000,353.000000 
	C593.000000,432.972534 593.000000,512.945068 593.000000,592.958801 
	C395.761932,592.958801 198.523834,592.958801 1.000000,592.958801 
	C1.000000,451.644165 1.000000,310.288116 1.218533,168.724213 
	C7.026366,172.916641 12.963310,178.038773 19.798738,178.585709 
	C28.173798,179.255844 35.108902,181.673233 41.969128,186.183807 
	C51.558979,192.489120 61.541489,191.129242 70.108734,183.353134 
	C72.691101,181.009216 75.244286,178.369232 78.303261,176.868790 
	C84.850311,173.657425 88.130447,168.387253 90.294136,161.739838 
	C94.176231,149.812988 99.613258,138.747330 107.925621,129.052017 
	C112.712868,123.468292 118.088257,117.977119 119.453987,110.083031 
	C121.467896,98.442421 124.245491,86.930008 125.017090,75.089523 
	C125.490471,67.825134 128.330353,61.576660 133.338303,56.302280 
	C142.153900,47.017673 152.353027,39.674763 164.017502,34.371597 
	C170.238220,31.543386 176.408066,28.621983 181.704269,24.178543 
	C183.377823,22.774464 185.686584,21.295893 185.311722,19.087425 
	C184.292175,13.080840 185.032883,6.857729 183.000000,1.000000 
	C280.022644,1.000000 377.045288,1.000000 474.330200,1.243312 
	C474.328674,1.907589 473.924438,2.297019 473.821808,2.754166 
	C471.735077,12.049185 470.528229,20.311052 478.694489,28.635138 
	C489.114075,39.256157 490.883759,54.219135 493.008698,68.447716 
	C494.438354,78.020477 495.460602,87.737381 499.263977,96.679794 
	C507.478271,115.993202 515.951782,135.202820 524.702515,154.279053 
	C529.568359,164.886383 531.437927,175.216446 529.104675,187.103271 
	C526.698914,199.358734 525.593750,212.546478 538.609741,221.145630 
	C539.949280,222.030670 540.876404,223.566589 541.929932,224.853683 
	C548.187256,232.498230 551.921448,241.390503 554.169617,250.871887 
	C555.945374,258.361237 558.152344,265.682098 561.180481,272.733398 
	C564.916809,281.433685 565.554565,290.441101 564.381714,299.687195 
	C564.023621,302.510895 563.291565,305.552948 564.515503,308.092041 
	C569.116821,317.637909 570.487427,328.190948 574.223083,337.986755 
	C575.839478,342.225250 578.355896,345.625000 583.054504,346.738617 
	C587.099243,347.697296 590.136780,350.195892 593.000000,353.000000 
M251.758148,424.189392 
	C257.606812,420.529053 263.530853,417.346436 270.892273,418.768402 
	C273.594543,419.290405 275.520020,417.282990 277.343079,415.527588 
	C281.597473,411.430969 284.512573,406.360199 287.617310,401.426788 
	C291.535889,395.200104 295.374146,388.674652 301.865173,384.934265 
	C309.331818,380.631622 316.624756,376.473297 323.083984,370.476410 
	C326.657440,367.158722 327.737549,365.068787 326.452087,360.633301 
	C323.088593,349.027557 317.399323,338.054443 317.233093,325.527954 
	C317.197327,322.834167 315.280396,318.539398 312.192627,318.925751 
	C307.590393,319.501617 304.215942,317.089935 300.259399,316.250793 
	C288.917023,313.845337 280.530914,307.075439 273.425415,298.277405 
	C270.292572,294.398346 266.827576,290.780273 263.404572,287.146118 
	C261.876068,285.523315 259.995575,284.283691 257.619354,285.508942 
	C249.526321,289.681976 240.569763,291.087799 231.945282,293.538818 
	C213.684845,298.728333 200.150955,309.473816 191.135147,326.363373 
	C174.959213,356.666229 165.980515,389.229431 159.226318,422.648163 
	C156.854706,434.382446 158.850235,447.081512 151.779190,457.832581 
	C151.367462,458.458588 151.417480,459.451874 151.416122,460.274536 
	C151.398209,471.105286 151.008163,481.955017 151.518204,492.761932 
	C152.119125,505.494629 158.879379,511.217773 171.651474,510.964813 
	C177.530243,510.848358 183.236099,509.931763 188.761169,507.878540 
	C201.283386,503.224976 213.148376,497.158203 224.962082,490.997223 
	C237.980881,484.207764 250.184280,476.057770 262.496124,468.100739 
	C265.034912,466.459961 267.768433,464.625366 265.183990,460.915070 
	C260.517242,454.215332 260.220367,446.598938 260.681091,438.857727 
	C260.873505,435.624451 262.807526,431.837158 259.499054,429.523773 
	C256.179962,427.202911 253.218445,430.378082 250.377304,431.724091 
	C231.541748,440.647491 212.483414,448.941864 192.093384,453.736298 
	C190.746613,454.052948 189.375870,454.849243 187.820740,453.224884 
	C192.133957,449.835236 197.937347,449.552094 202.000702,445.560120 
	C197.228836,441.629181 190.646591,442.439240 185.829330,438.321899 
	C190.408020,436.756500 194.279861,438.194214 198.015930,439.183228 
	C202.931503,440.484497 206.051208,438.782135 208.325836,434.593933 
	C209.531708,432.373566 210.388260,430.067474 210.660065,427.540344 
	C211.974304,415.320953 213.312103,403.104065 214.632492,390.885315 
	C214.823471,389.118103 214.616425,387.204254 216.621780,386.007355 
	C216.862808,386.503876 217.231567,386.909210 217.231461,387.314453 
	C217.227325,402.624573 216.840485,417.918793 214.835907,433.121277 
	C214.533798,435.412292 213.288147,437.968750 215.363052,439.697723 
	C217.569519,441.536316 219.829712,439.493042 221.816711,438.565063 
	C231.624908,433.984375 241.354645,429.235626 251.758148,424.189392 
M324.661926,443.148651 
	C318.910126,450.378510 310.736816,453.134827 302.227142,455.207001 
	C295.119354,456.937805 287.827515,457.953888 280.946899,460.552429 
	C278.804779,461.361450 276.046753,462.064972 275.750244,464.722992 
	C275.230255,469.384674 271.937805,471.503998 268.589752,473.709412 
	C250.201202,485.822174 231.237732,496.953369 211.162598,506.027008 
	C206.271927,508.237518 204.507263,511.383118 205.506821,516.134277 
	C206.299622,519.902649 205.653015,522.756531 201.869156,524.666138 
	C204.302155,525.916870 206.341583,525.645447 208.308640,525.595642 
	C222.438370,525.237732 236.554626,525.641968 250.712387,524.838196 
	C272.627533,523.594055 294.617554,524.652649 316.599274,523.885315 
	C343.362183,522.951172 370.187012,523.619263 396.973938,522.637024 
	C402.344635,522.440125 403.799622,521.160095 402.455017,515.912903 
	C398.641296,501.030060 399.433014,485.816071 398.950226,470.725494 
	C398.519196,457.252869 399.575684,443.759735 400.862610,430.342133 
	C401.880890,419.725372 404.067139,409.281372 408.683746,399.527863 
	C409.631195,397.526184 410.376923,395.280304 412.618866,394.117004 
	C413.787750,395.849731 412.942169,397.245361 412.597473,398.660156 
	C408.081879,417.193085 406.514557,436.009094 406.242950,455.065399 
	C405.948883,475.697937 409.110596,496.313385 406.393585,516.944031 
	C405.872101,520.903809 407.566681,522.701843 411.775848,522.686768 
	C419.409027,522.659546 427.042084,522.308044 434.684082,523.468628 
	C438.100281,523.987610 441.919403,524.496521 445.523376,522.521484 
	C444.165955,517.823242 444.408630,513.152100 445.023926,508.583984 
	C446.509949,497.551422 444.942413,486.640747 444.094391,475.708801 
	C442.728424,458.099030 438.977844,440.855286 435.608215,423.564575 
	C430.617920,397.957642 426.609711,372.132996 419.544159,346.973175 
	C415.657074,333.131683 409.418793,320.527039 398.004639,311.118622 
	C390.715454,305.110291 382.272980,301.223450 373.688843,297.485443 
	C369.403870,295.619507 366.708618,296.477600 364.732056,300.533447 
	C362.156921,305.817596 358.758911,310.551941 354.768768,314.841064 
	C348.192200,321.910461 342.771820,322.703064 334.441498,317.600250 
	C331.287384,315.668152 329.206543,316.340851 327.355133,319.239166 
	C324.415710,323.840729 323.753601,328.766327 324.835510,334.076843 
	C326.438995,341.947540 330.692047,349.106201 331.835632,356.932739 
	C333.057556,365.295502 335.100037,371.903442 344.651215,373.224579 
	C344.948181,373.265656 345.270721,373.523804 345.475159,373.769226 
	C347.431183,376.117218 349.869446,376.192627 352.707581,375.780304 
	C365.917053,373.861237 378.906830,375.182281 391.745361,378.675568 
	C395.143890,379.600311 396.950256,381.125275 397.562469,384.989197 
	C399.061188,394.448120 399.328094,403.909088 398.155579,413.323090 
	C396.931122,423.154114 393.704559,432.443359 388.051361,440.721954 
	C383.879822,446.830750 378.464386,450.941681 370.658569,450.646332 
	C364.502930,450.413391 358.358063,449.896545 352.202545,449.657532 
	C345.166718,449.384277 339.829865,446.669220 336.347443,440.226746 
	C334.263855,436.372040 331.518890,436.294281 328.226349,439.347351 
	C327.129517,440.364349 326.168427,441.527710 324.661926,443.148651 
M294.981659,257.413910 
	C293.825989,258.301910 292.343872,258.665863 291.614014,260.217285 
	C285.914825,272.331238 287.264282,275.608185 299.828339,279.826080 
	C300.459564,280.038025 301.066162,280.383942 301.712311,280.481567 
	C311.021454,281.888428 312.255859,288.625519 310.892975,295.614807 
	C308.915222,305.757172 311.087555,310.200897 320.740570,315.677826 
	C322.422546,313.880707 324.519531,311.876892 323.601196,309.270905 
	C320.707703,301.060059 325.659821,297.203583 331.642944,293.835968 
	C337.158386,290.731598 342.660461,287.651306 347.681732,283.734833 
	C350.666870,281.406494 350.771637,279.450928 348.129669,276.839966 
	C346.322601,275.054138 344.348022,274.304138 341.871918,274.361145 
	C331.807922,274.592834 322.862427,271.363159 315.079315,265.115936 
	C312.864563,263.338257 308.112244,261.537994 310.602875,258.194122 
	C312.909271,255.097580 315.831360,259.058868 318.141510,260.609619 
	C330.848450,269.139435 344.172821,270.673553 357.681152,263.195740 
	C372.305237,255.100266 378.891296,241.241669 382.558075,225.685944 
	C383.117859,223.311157 382.701263,221.134796 380.128571,219.753342 
	C375.889984,217.477386 374.920929,213.229889 375.067169,209.048096 
	C375.221008,204.648911 376.362122,200.284256 377.007568,196.301163 
	C380.246307,194.456482 381.113373,198.811813 384.224060,197.786316 
	C385.724884,192.856995 384.229858,187.549866 384.622620,182.360916 
	C384.869324,179.102005 383.441467,177.186020 380.397247,175.859009 
	C375.474945,173.713333 370.309601,172.519257 365.183014,171.103134 
	C363.146149,170.540482 361.436523,169.113174 362.138367,166.703583 
	C362.791809,164.460159 364.724548,163.819092 366.953491,164.244980 
	C370.403290,164.904160 373.675171,166.104752 376.917053,167.441086 
	C378.478027,168.084549 380.095398,170.043137 381.861420,168.241165 
	C383.310883,166.762207 382.507233,164.781464 382.114624,163.007416 
	C380.566559,156.012009 378.697449,149.127350 375.780304,142.542114 
	C371.484192,132.843979 369.271637,131.079773 358.768738,131.438431 
	C346.469818,131.858398 334.156982,132.430374 321.906403,133.551086 
	C309.214722,134.712158 298.771210,139.570694 294.398102,152.958450 
	C293.316650,156.269257 291.234985,159.177536 288.358582,161.378372 
	C280.625153,167.295517 279.099426,175.433853 280.003601,184.511765 
	C280.299103,187.478607 280.560913,190.539230 280.162689,193.465027 
	C279.439331,198.779572 274.725677,200.814178 270.315887,198.027176 
	C265.160034,194.768677 258.510284,196.131104 255.458939,201.220413 
	C251.396271,207.996490 251.586090,214.866776 255.718109,221.502884 
	C257.978241,225.132751 261.455933,227.628265 265.794922,226.302643 
	C269.517517,225.165329 270.890869,226.710800 272.399139,229.490723 
	C277.234772,238.403397 283.235504,246.219727 292.582520,250.991425 
	C294.625305,252.034286 297.254700,253.548508 294.981659,257.413910 
M261.548065,182.079056 
	C263.720306,165.756683 268.749634,150.427505 276.565613,135.875473 
	C283.296722,123.343300 293.647034,115.753403 306.793396,111.403786 
	C319.876099,107.075256 333.298553,105.081406 347.090240,105.538689 
	C349.059296,105.603973 351.435516,106.344421 353.125610,103.375877 
	C345.283051,99.693474 337.375244,97.600533 329.004028,97.436958 
	C306.339630,96.994057 284.874664,102.996132 263.724548,110.180710 
	C244.517685,116.705154 225.493439,142.995804 224.885925,163.135086 
	C224.790436,166.300369 225.296783,169.474838 226.628418,172.392258 
	C227.347916,173.968597 227.879745,175.974289 230.678925,175.854431 
	C232.956009,170.913376 232.345352,164.905807 235.638260,159.546249 
	C237.519897,163.154831 236.988953,166.430634 236.751663,169.701004 
	C235.928513,181.045227 235.477127,192.364487 240.503998,203.044952 
	C241.519592,205.202759 242.123825,207.769897 244.717819,208.662735 
	C246.579651,207.429977 246.415573,205.637756 246.818130,204.067032 
	C248.058014,199.229431 250.193130,194.645660 254.761276,192.457626 
	C259.090057,190.384247 261.057465,187.393265 261.548065,182.079056 
M288.678375,412.119019 
	C285.537750,416.297516 282.079346,420.743042 277.042145,421.959229 
	C267.476501,424.268829 264.800262,430.015411 266.347168,438.918365 
	C266.572235,440.213806 266.259705,441.598480 266.450073,442.904846 
	C267.046844,447.000153 267.309265,451.212585 270.004669,454.686188 
	C271.463135,456.565765 273.054108,457.664368 275.542480,456.355255 
	C282.856079,452.507782 290.906342,451.088135 298.881470,449.451660 
	C308.608124,447.455750 317.233337,443.666168 323.300781,435.284760 
	C326.131653,431.374268 330.285004,429.242004 334.816711,427.758270 
	C336.587402,427.178528 338.837280,427.006866 339.163513,424.400238 
	C337.104156,422.538910 333.637268,424.191101 332.035217,421.388702 
	C333.524414,419.126984 335.870758,419.751495 337.935760,419.606140 
	C341.989441,419.320770 343.516205,416.184265 343.588104,413.154205 
	C343.659332,410.154694 340.374634,410.456360 338.105255,410.382690 
	C335.111084,410.285461 332.109467,410.406219 329.116333,410.293518 
	C327.941986,410.249268 326.303741,410.729462 326.000977,408.425537 
	C329.586029,406.108643 333.829071,406.229645 337.855011,405.740204 
	C340.729401,405.390778 342.739380,404.426208 342.797058,401.312256 
	C342.857422,398.055603 340.982758,396.421814 337.809326,396.362091 
	C333.818512,396.286957 329.823639,396.399719 325.834259,396.292145 
	C324.184540,396.247650 322.105682,397.035065 321.051422,394.370148 
	C323.644989,391.700531 327.116974,391.256287 330.509155,390.720825 
	C333.191467,390.297455 336.526184,390.039398 336.194244,386.585724 
	C335.872101,383.233856 332.478485,383.292816 329.791321,383.348145 
	C315.986908,383.632294 304.529541,388.607574 296.526306,400.281860 
	C293.985962,403.987427 291.581055,407.785797 288.678375,412.119019 
M281.684479,296.821198 
	C285.926697,301.901855 290.975128,305.916992 297.254120,308.154388 
	C299.589874,308.986694 302.556244,309.980103 303.242920,306.256683 
	C303.992645,302.191284 304.361328,298.009064 304.404388,293.872681 
	C304.449005,289.586365 301.956604,286.771301 297.975403,285.266937 
	C291.374329,282.772583 285.435272,279.127136 279.825226,274.888763 
	C277.721802,273.299622 275.450012,271.074921 273.025055,274.280701 
	C270.901733,277.087738 267.717224,279.776917 271.188751,283.846802 
	C274.644745,287.898529 277.882172,292.136749 281.684479,296.821198 
M52.706867,228.297424 
	C51.335369,231.321243 49.691246,234.254868 48.654430,237.389389 
	C46.979424,242.453369 48.947975,246.467987 54.061020,249.397705 
	C58.527939,251.957214 63.775673,251.446747 66.930214,248.145905 
	C74.159264,240.581512 74.915939,229.807587 68.917770,221.111572 
	C67.006416,218.340546 64.715210,217.744339 61.598709,218.929916 
	C57.353252,220.544998 55.306179,224.155136 52.706867,228.297424 
M334.570038,301.271454 
	C332.433716,305.132050 330.253693,309.358215 333.872437,313.134308 
	C337.946259,317.385284 344.452789,317.872528 347.871124,314.114563 
	C354.523010,306.801666 359.813934,298.543213 361.947723,288.646820 
	C362.511566,286.031616 361.455627,283.949463 359.229309,282.753418 
	C356.909760,281.507294 354.704041,282.118439 353.014587,284.209290 
	C347.849731,290.601227 341.606567,295.820709 334.570038,301.271454 
M383.888641,211.805878 
	C383.211761,210.010849 382.693604,208.091736 380.175751,207.266098 
	C379.051239,209.109756 378.929932,211.001877 380.036743,212.718231 
	C381.334503,214.730804 382.914246,215.778809 383.888641,211.805878 
z"/>
<path fill="#000000" opacity="1.000000" stroke="none" 
	d="
M241.821625,386.270355 
	C238.147644,386.113342 234.826523,387.011139 231.122513,385.250305 
	C234.896072,382.062347 239.190994,382.545166 242.983383,382.097961 
	C252.861618,380.933075 262.632446,379.210602 272.398163,377.406860 
	C274.186005,377.076630 276.482788,376.186859 277.117828,378.493256 
	C277.914398,381.386353 274.952606,381.493713 273.243896,381.841614 
	C263.018738,383.923431 252.658142,385.130798 241.821625,386.270355 
z"/>
<path fill="#000000" opacity="1.000000" stroke="none" 
	d="
M179.047394,455.865509 
	C172.335236,460.965576 166.909805,466.937469 161.191788,472.838776 
	C158.900482,470.549774 159.955353,468.712463 160.944809,467.088593 
	C164.683472,460.952789 169.506042,455.727722 174.980942,451.116364 
	C176.682068,449.683594 179.029800,448.504822 180.756668,450.444397 
	C182.349960,452.233917 180.768478,454.134613 179.047394,455.865509 
z"/>
<path fill="#000000" opacity="1.000000" stroke="none" 
	d="
M329.467834,466.528290 
	C330.154938,460.232880 328.459534,454.123962 331.287140,448.505554 
	C333.904938,448.705719 334.102448,450.512177 334.258728,452.091675 
	C335.865723,468.332031 336.161987,484.586578 334.208984,500.814362 
	C333.890778,503.458374 333.657593,507.451202 330.185547,507.322205 
	C326.542511,507.186859 327.453705,503.156555 327.544189,500.802155 
	C327.977631,489.525635 328.752991,478.262238 329.467834,466.528290 
z"/>
<path fill="#000000" opacity="1.000000" stroke="none" 
	d="
M328.429260,234.230560 
	C323.840271,221.402054 324.492615,220.506409 337.820129,220.116577 
	C342.033356,219.993362 346.331696,220.478394 350.721130,219.100800 
	C349.003021,216.270096 345.965332,216.169922 343.974304,214.477676 
	C342.299072,213.053848 340.956024,211.556564 342.356659,209.425171 
	C343.733154,207.330597 345.645172,207.598145 347.556366,208.932739 
	C348.506531,209.596237 349.539948,210.155930 350.581207,210.670441 
	C352.857269,211.795029 355.153198,212.103729 356.834900,209.767700 
	C358.376190,207.626663 357.412933,205.722733 355.857544,203.941315 
	C354.714752,202.632477 352.985107,201.641724 352.934082,199.276596 
	C356.006500,197.585312 358.492737,198.812744 360.482605,200.881500 
	C363.358307,203.871216 363.887421,207.413773 362.685089,211.508820 
	C361.923401,214.103012 357.550873,215.628204 359.758514,218.689590 
	C361.362946,220.914536 364.781555,219.672943 367.369171,220.039505 
	C371.179871,220.579315 372.419739,222.857712 372.222260,226.279663 
	C372.087524,228.614304 371.350403,230.821762 370.315704,232.932724 
	C363.916260,245.988617 336.917786,251.231659 328.429260,234.230560 
M351.363586,228.002060 
	C354.627716,227.323318 358.313873,228.386459 361.237946,225.726334 
	C356.547852,223.418121 340.081787,223.924332 337.201874,226.637268 
	C341.589294,228.496277 346.048950,227.926361 351.363586,228.002060 
z"/>
<path fill="#000000" opacity="1.000000" stroke="none" 
	d="
M318.565704,201.158127 
	C318.993439,207.677124 319.498932,214.016525 316.068909,219.695602 
	C314.140137,222.889069 311.203735,225.368454 307.458618,223.858337 
	C303.631470,222.315125 303.538361,218.594116 304.481354,214.899597 
	C306.545624,206.812393 312.279236,200.950363 318.565704,201.158127 
M311.427002,218.688614 
	C314.741241,215.219284 315.362030,211.283997 313.655975,206.100754 
	C311.402039,209.411774 309.027008,211.764175 308.465179,215.120590 
	C308.161407,216.935043 307.407135,219.361343 311.427002,218.688614 
z"/>
<path fill="#000000" opacity="1.000000" stroke="none" 
	d="
M332.096619,172.397232 
	C324.032288,172.974243 316.876038,175.171371 310.082550,179.961487 
	C309.411987,176.566559 310.736267,175.010849 312.123688,173.723953 
	C317.374329,168.853592 323.323547,165.470154 330.791595,165.699036 
	C332.811584,165.760925 334.423462,166.642227 334.980011,168.600494 
	C335.544067,170.585007 334.205231,171.644913 332.096619,172.397232 
z"/>
<path fill="#000000" opacity="1.000000" stroke="none" 
	d="
M318.951111,191.850098 
	C317.298737,192.608780 316.088989,193.666626 314.467529,193.073944 
	C314.418915,188.339752 318.594696,184.352203 324.282562,183.693481 
	C329.606934,183.076859 335.345245,186.381882 336.149414,190.570740 
	C336.441956,192.094574 336.363129,193.588028 334.863831,194.535004 
	C332.858459,195.801590 331.263000,194.628830 330.043488,193.308517 
	C326.828705,189.827957 323.260101,189.606934 318.951111,191.850098 
z"/>
<path fill="#000000" opacity="1.000000" stroke="none" 
	d="
M278.429626,212.416779 
	C280.075073,214.161484 279.663574,215.631180 278.822083,217.079971 
	C276.016083,217.822128 274.784241,215.597610 273.051727,214.486084 
	C269.527100,212.224792 265.825195,210.409317 261.749634,209.329636 
	C259.935394,208.849030 257.148499,208.656967 257.798920,205.924820 
	C258.318695,203.741501 260.848450,203.571640 262.852264,203.711761 
	C269.241791,204.158585 273.994537,207.689697 278.429626,212.416779 
z"/>
<path fill="#000000" opacity="1.000000" stroke="none" 
	d="
M381.218048,188.700775 
	C376.129913,189.342072 370.893951,188.838562 367.683929,194.137741 
	C366.980499,195.299011 365.190948,194.951004 364.099335,194.003311 
	C362.348480,192.483307 362.345673,190.508820 363.246155,188.573486 
	C365.000061,184.803970 368.322601,183.575897 372.172913,183.521164 
	C376.067261,183.465790 379.889099,183.732498 381.218048,188.700775 
z"/>
<path fill="#000000" opacity="1.000000" stroke="none" 
	d="
M258.438293,154.598740 
	C257.412964,156.976532 255.686569,156.832932 254.197968,156.013901 
	C251.465469,154.510513 248.880035,152.734024 246.274170,151.009644 
	C245.427963,150.449692 244.752014,149.599091 245.238113,148.512192 
	C245.666641,147.553970 246.619293,147.138519 247.633087,146.980377 
	C251.757370,146.336945 257.159943,149.958847 258.438293,154.598740 
z"/>
<path fill="#000000" opacity="1.000000" stroke="none" 
	d="
M261.291412,133.585327 
	C264.066589,134.765182 266.527679,135.738586 268.875092,136.934937 
	C270.167358,137.593536 270.603302,138.927567 270.256927,140.356964 
	C269.936279,141.680328 268.946198,142.142975 267.640717,142.135635 
	C264.849365,142.119934 256.575409,135.781387 255.280502,132.581558 
	C257.359650,131.721832 259.111633,132.826324 261.291412,133.585327 
z"/>
<path fill="#000000" opacity="1.000000" stroke="none" 
	d="
M279.438049,126.460083 
	C273.630798,126.796402 270.145966,123.101257 265.431580,120.121910 
	C271.837921,118.324982 279.081146,121.786934 279.438049,126.460083 
z"/>
<path fill="#000000" opacity="1.000000" stroke="none" 
	d="
M289.929810,109.989738 
	C291.628265,111.003822 292.789581,112.125359 291.833710,113.746956 
	C290.829559,115.450470 289.055206,114.699135 287.899078,114.005592 
	C285.816589,112.756310 282.953796,112.120102 282.469910,108.771614 
	C285.236938,107.645508 287.370911,109.029007 289.929810,109.989738 
z"/>
<path fill="#000000" opacity="1.000000" stroke="none" 
	d="
M303.259766,107.877411 
	C301.395203,106.638962 299.259460,106.083237 299.187714,103.400970 
	C302.240692,102.214714 304.810638,103.192535 306.163727,105.808098 
	C307.142670,107.700333 305.302917,108.196960 303.259766,107.877411 
z"/>
<path fill="#000000" opacity="1.000000" stroke="none" 
	d="
M302.873169,406.312347 
	C303.363251,404.158600 303.772888,402.412140 304.154510,400.785187 
	C305.989502,400.259613 307.229034,401.052216 307.585388,402.355743 
	C309.275970,408.539551 312.881439,414.147980 313.082489,420.780853 
	C313.139160,422.650574 312.736969,424.174896 310.709167,424.532715 
	C308.638245,424.898193 306.526611,423.763580 306.408447,422.004669 
	C306.049713,416.663513 302.790253,412.081909 302.873169,406.312347 
z"/>
</svg>